<svg id="Calque_1" data-name="Calque 1" xmlns="http://www.w3.org/2000/svg" viewBox="0 0 224.43 76.02"><defs><style>.cls-1{fill:#fff;}.cls-2{fill:#102788;}.cls-3{fill:#f90;}.cls-4{fill:#bf0000;}.cls-5{fill:none;}</style></defs><title>logoRakuten_PM_rgb</title><rect class="cls-1" width="224.43" height="76.02" rx="3.4" ry="3.4"/><g id="Artboard-3"><g id="Group-3"><g id="Group"><path id="Fill-1" class="cls-2" d="M100.66,64.68h-3V50.46h6.09a5.15,5.15,0,0,1,3.7,1.39,4.84,4.84,0,0,1,0,6.93,5.16,5.16,0,0,1-3.7,1.4h-3.08Zm2.9-11.57h-2.9v4.31h2.9a2,2,0,0,0,1.52-.63,2.15,2.15,0,0,0-1.52-3.68Z"/><path id="Fill-3" class="cls-2" d="M109.51,64.68h3.09V58.46a2.4,2.4,0,0,1,.52-1.53,2.84,2.84,0,0,1,1-.83,4.3,4.3,0,0,1,1.5-.35h.13V53h-.15a5.12,5.12,0,0,0-3.44,1.18l-.27-.91h-2.4Z"/><polygon id="Fill-5" class="cls-2" points="116.43 64.68 119.41 64.68 119.41 53.29 116.43 53.29 116.43 64.68"/><path id="Fill-7" class="cls-2" d="M125.74,53a5.3,5.3,0,0,0-2.85.81,5.65,5.65,0,0,0-2,2.17,6.19,6.19,0,0,0-.74,3,6.29,6.29,0,0,0,.74,3,5.75,5.75,0,0,0,2,2.18,5.31,5.31,0,0,0,2.85.8,5.16,5.16,0,0,0,3.37-1.22,6.33,6.33,0,0,0,1.28-1.47l.07-.13-2.57-1.52-.08.11A2.43,2.43,0,0,1,125.74,62a2.34,2.34,0,0,1-1.84-.88,3.06,3.06,0,0,1-.77-2.12,3.1,3.1,0,0,1,.77-2.13,2.36,2.36,0,0,1,1.84-.87,2.55,2.55,0,0,1,2.07,1.26l.08.11,2.57-1.54-.07-.12A5.33,5.33,0,0,0,125.74,53"/><path id="Fill-8" class="cls-2" d="M136.45,62.11a2.5,2.5,0,0,1-2.64-2.25h7.63l0-.13a7.65,7.65,0,0,0,0-.81,6.21,6.21,0,0,0-.72-3,5.65,5.65,0,0,0-2-2.15A5.19,5.19,0,0,0,136,53a5.11,5.11,0,0,0-3.94,1.73A6.12,6.12,0,0,0,130.48,59a6.41,6.41,0,0,0,.43,2.38A5.36,5.36,0,0,0,134,64.52a6.23,6.23,0,0,0,2.38.45,5.87,5.87,0,0,0,1.87-.28,5,5,0,0,0,1.58-.86,7.54,7.54,0,0,0,1.4-1.46l.07-.13-2.59-1.48-.07.09a2.8,2.8,0,0,1-2.18,1.26m1.65-4.77h-4.21a2.49,2.49,0,0,1,.79-1.33,2,2,0,0,1,1.33-.47,2,2,0,0,1,2.09,1.8"/><polygon id="Fill-9" class="cls-3" points="145.69 50.46 142.49 50.46 142.49 64.68 145.46 64.68 145.46 54.81 149.02 60.02 152.57 54.81 152.57 64.68 155.55 64.68 155.55 50.46 152.34 50.46 149.02 55.3 145.69 50.46"/><polygon id="Fill-10" class="cls-3" points="156.9 64.68 159.87 64.68 159.87 53.29 156.9 53.29 156.9 64.68"/><path id="Fill-11" class="cls-3" d="M161.43,64.68h3V58.07a2.11,2.11,0,0,1,.7-1.58,2.35,2.35,0,0,1,1.66-.67,2.08,2.08,0,0,1,1.56.64,2.22,2.22,0,0,1,.62,1.61v6.61h3V58a5.08,5.08,0,0,0-1.31-3.58A4.46,4.46,0,0,0,167.2,53a3.75,3.75,0,0,0-2.88,1.12l-.31-.85h-2.58Z"/><polygon id="Fill-12" class="cls-3" points="173.04 64.68 176.02 64.68 176.02 53.29 173.04 53.29 173.04 64.68"/><path id="Fill-13" class="cls-3" d="M181.58,53a4.94,4.94,0,0,0-3.18,1,3.08,3.08,0,0,0-1.25,2.51A2.77,2.77,0,0,0,178.43,59a4.6,4.6,0,0,0,.88.47c.33.13.88.33,1.68.58a8.37,8.37,0,0,1,1.7.68.74.74,0,0,1,.41.62c0,.57-.5.85-1.48.85a3.38,3.38,0,0,1-2.87-1.45l-.09-.12-2,1.93.08.09A5.53,5.53,0,0,0,181.58,65,5.58,5.58,0,0,0,185,64a3.19,3.19,0,0,0-.58-5.47,13.69,13.69,0,0,0-2.94-1,2.54,2.54,0,0,1-.85-.38.68.68,0,0,1,.07-1.1,1.55,1.55,0,0,1,.87-.22,3.36,3.36,0,0,1,2.29,1.11L184,57l1.94-2.24-.09-.09A6.22,6.22,0,0,0,181.58,53"/><path id="Fill-14" class="cls-3" d="M186.25,53.29V56.1h1.94v5.33a6.16,6.16,0,0,0,.17,1.59,2.56,2.56,0,0,0,1.21,1.42,4.27,4.27,0,0,0,2.14.53,4.41,4.41,0,0,0,2.27-.53,5.22,5.22,0,0,0,1.66-1.84l.07-.11L193.3,61.1l-.08.13a2.11,2.11,0,0,1-.55.72,1,1,0,0,1-.64.22c-.47,0-.7-.22-.7-.67V56.1h3.15V53.29h-3.15V50.8h-3.14v2.49Z"/><path id="Fill-15" class="cls-3" d="M201.06,62.11a2.63,2.63,0,0,1-1.77-.59,2.56,2.56,0,0,1-.86-1.66h7.62l0-.13a7.65,7.65,0,0,0,.05-.81,6.21,6.21,0,0,0-.72-3,5.57,5.57,0,0,0-2-2.15,5.19,5.19,0,0,0-2.8-.8,5.11,5.11,0,0,0-3.94,1.73A6.12,6.12,0,0,0,195.09,59a6.62,6.62,0,0,0,.43,2.38,5.36,5.36,0,0,0,3.08,3.13A6.26,6.26,0,0,0,201,65a5.87,5.87,0,0,0,1.87-.28,5.13,5.13,0,0,0,1.59-.86,7.81,7.81,0,0,0,1.39-1.46l.07-.13-2.59-1.48-.07.09a2.8,2.8,0,0,1-2.18,1.26m1.65-4.77H198.5a2.49,2.49,0,0,1,.79-1.33,2,2,0,0,1,1.33-.47,2,2,0,0,1,2.09,1.8"/><path id="Fill-16" class="cls-3" d="M206.84,64.68h3.08V58.46a2.41,2.41,0,0,1,.53-1.53,2.84,2.84,0,0,1,1-.83,4.3,4.3,0,0,1,1.5-.35h.13V53H213a5.12,5.12,0,0,0-3.44,1.18l-.27-.91h-2.4Z"/><path id="Fill-17" class="cls-2" d="M118,49.52a1.59,1.59,0,1,1-1.59,1.58A1.59,1.59,0,0,1,118,49.52"/><path id="Fill-18" class="cls-3" d="M158.41,49.52a1.59,1.59,0,1,1-1.58,1.58,1.58,1.58,0,0,1,1.58-1.58"/><path id="Fill-19" class="cls-3" d="M174.5,49.52a1.59,1.59,0,1,1-1.59,1.58,1.59,1.59,0,0,1,1.59-1.58"/></g></g></g><path class="cls-4" d="M45.35,28.35a17,17,0,1,1-17-17A17,17,0,0,1,45.35,28.35Z"/><path class="cls-1" d="M26.1,37.49V31.82h2.45l4.26,5.67h4.34L32,30.65a6.3,6.3,0,0,0-3.65-11.44H22.62V37.49Zm0-14.81h2.26a2.84,2.84,0,1,1,0,5.67H26.1Z"/><path d="M160.19,36.83a2.62,2.62,0,0,1-2.43,1.63,2.66,2.66,0,0,1-2.63-2.92V25h8.58V19.15h-8.58V13h-5.81v6.11h-4.13V25h4.13V35.54a8.47,8.47,0,0,0,16.54,2.82Z"/><path d="M88.34,19.15v1.08a10.59,10.59,0,0,0-5.67-1.69c-6.33,0-11.47,5.77-11.47,12.86s5.14,12.86,11.47,12.86a10.5,10.5,0,0,0,5.67-1.69v1.08h5.81V19.15ZM82.67,38.44c-3.12,0-5.66-3.16-5.66-7s2.54-7,5.66-7,5.67,3.16,5.67,7S85.8,38.44,82.67,38.44Z"/><path d="M137.33,19.15V33.54a4.9,4.9,0,1,1-9.79,0V19.15h-5.82V33.54a10.73,10.73,0,0,0,10.72,10.72,10.62,10.62,0,0,0,4.89-1.2v.59h5.82V19.15Z"/><path d="M202.38,18.54a10.62,10.62,0,0,0-4.89,1.2v-.59h-5.82v24.5h5.82V29.26a4.9,4.9,0,1,1,9.79,0V43.65h5.82V29.26A10.73,10.73,0,0,0,202.38,18.54Z"/><path d="M189.34,31.4c0-7.1-5.15-12.88-11.48-12.88s-11.48,5.66-11.48,12.88c0,7.59,6.48,12.88,12.29,12.88a12,12,0,0,0,10.11-5.49l-5.07-2.92c-4.3,5.24-10.28,1.68-10.88-2.76h16.4A16.55,16.55,0,0,0,189.34,31.4Zm-6.57-3.49H173C174.05,23.15,181.69,22.15,182.77,27.91Z"/><polygon points="109.07 30.63 120.56 19.15 112.33 19.15 103.46 28.02 103.46 11.02 97.64 11.02 97.64 43.65 103.46 43.65 103.46 33.25 113.86 43.65 122.09 43.65 109.07 30.63"/><path d="M54.57,43.65V34.16h4.12l7.12,9.49h7.28L64.49,32.2A10.56,10.56,0,0,0,58.37,13H48.76V43.65Zm0-24.8h3.8a4.75,4.75,0,1,1,0,9.49h-3.8Z"/><rect class="cls-5" x="11.34" y="11.34" width="201.76" height="53.34"/></svg>